<?xml version="1.0" encoding="UTF-8"?>
<svg id="Layer_1" data-name="Layer 1" xmlns="http://www.w3.org/2000/svg" version="1.1" viewBox="0 0 989 287.8">
  <defs>
    <style>
      .cls-1 {
        fill: #d7d7d7;
      }

      .cls-1, .cls-2, .cls-3 {
        stroke-width: 0px;
      }

      .cls-2 {
        fill: #ff7c33;
      }

      .cls-3 {
        fill: #ff8c52;
      }
    </style>
  </defs>
  <path class="cls-1" d="M169.5,57.4v28.7c0,6.3-5.7,11.2-11.9,10s-12.8-1.8-18.9-1.8c-11.5,0-21.7,1.7-30.7,4.9-8.9,3.3-16.4,8-22.5,14.1-6.1,6.1-10.7,13.4-13.8,21.8-3.1,8.4-4.7,17.7-4.7,27.8s2.2,26,6.8,35.3,10.3,16.4,17.5,21.4c7.2,4.9,14.4,8.3,21.8,10.1,7.4,1.8,14.2,2.7,20.4,2.7s15.9-.9,23.8-2.6c6.3-1.4,12.2,3.5,12.2,9.9v29.5c0,4.9-3.5,9.1-8.4,10-13,2.4-26.9,3.5-41.5,3.5-27.9,0-50.9-5.7-68.9-17.2-18-11.5-30.9-26.3-38.8-44.4C4,203.1,0,183.6,0,162.8s5-43.8,15-61.8c10-18,24.6-31.9,43.7-41.9s41.7-15,67.7-15,23.1,1.1,34.9,3.4c4.8.9,8.2,5.1,8.2,10h0Z"/>
  <path class="cls-1" d="M244.7,58v210.8c0,4.9-3.9,8.8-8.8,8.8h-40.6c-4.9,0-8.8-3.9-8.8-8.8V58c0-4.9,3.9-8.8,8.8-8.8h40.5c4.9,0,8.8,3.9,8.8,8.8h0Z"/>
  <path class="cls-1" d="M319.8,110.4v157c0,5.6-4.5,10.1-10.1,10.1h-37.8c-5.6,0-10.1-4.5-10.1-10.1V110.4c0-5.6,4.5-10.2,10.1-10.2h37.8c5.6,0,10.1,4.6,10.1,10.2Z"/>
  <path class="cls-1" d="M463.2,108.3v23.9c0,6.5-6,11.4-12.3,9.9-4.2-.9-8.5-1.4-12.9-1.4-11.6,0-21.4,3.8-29.3,11.3-7.9,7.5-11.9,20.1-11.9,37.9s4.5,31.5,13.6,37.9c9.1,6.4,18.7,9.6,28.9,9.6s10.3-.4,14.4-1.3c.2,0,.4,0,.6-.1,6.3-1.4,12.3,3.4,12.3,9.9v23.9c0,4.8-3.4,8.9-8,9.9-2.3.5-4.5.9-6.5,1.2-4.2.5-9.5.8-15.9.8-17,0-31.9-2.4-44.5-7.2s-23-11.5-31.1-20.1c-8.1-8.6-14.1-18.4-18-29.4-3.9-11-5.8-22.7-5.8-35.2s1.6-23.3,4.9-34.1,8.6-20.7,15.9-29.8c7.4-9,17.2-16.2,29.7-21.6,12.4-5.4,27.1-8,44.2-8s16.5.6,23.4,1.9c4.8.9,8.3,5.1,8.3,10h0Z"/>
  <path class="cls-1" d="M541.9,53.9v58.7c0,8.4,9.7,13.2,16.3,8.1s11.8-10.4,16.2-16.3c1.9-2.6,4.9-4.1,8.1-4.1h49c8.3,0,13,9.3,8.3,16.1-1.2,1.7-2.4,3.4-3.7,5.1-5.3,6.9-11.2,13.4-17.7,19.5-3.8,3.6-7.8,7-12,10.2-4.6,3.5-5.4,10.1-1.7,14.6s7,9,10.5,14.1c5.8,8.6,10.8,17.5,15.1,26.8s8.3,19.9,12,31.9c2.6,8.4,4.9,17.3,7,26.8,1.4,6.4-3.4,12.4-9.9,12.4h-39.5c-4.8,0-8.9-3.3-9.9-8-1.7-7.5-3.9-15.4-6.8-23.7-3.9-11.3-8.5-22.2-14-32.5-4-7.6-8.4-14.6-13.2-21.2-2.7-3.8-7.8-5.2-12.1-3.4,0,0,0,0,0,0-1.1.5-1.9,1.6-1.9,2.8v75.9c0,5.6-4.5,10.1-10.2,10.1h-37.8c-5.6,0-10.2-4.5-10.2-10.1V53.9c0-5.6,4.5-10.2,10.2-10.2h37.8c5.6,0,10.2,4.5,10.2,10.2h0Z"/>
  <path class="cls-1" d="M796.4,110.4v25.8c0,5.6-4.5,10.1-10.2,10.1h-41.5c-4.2,0-7.3.4-9.3,1.4-2,.9-3,2.6-3,5.1s2,6.2,6.2,9.1c4.1,2.9,11.2,7.2,21.2,13,7.8,4.7,14.3,9.2,19.6,13.6s9.8,10.1,13.5,17.3c3.8,7.2,5.6,15.6,5.6,25.2s-1.7,13.9-5.2,20.9c-3.5,7-9.5,13-18.2,18.1-8.7,5-20.3,7.5-34.8,7.5h-63.8c-5.6,0-10.2-4.5-10.2-10.1v-25.8c0-5.6,4.5-10.1,10.2-10.1h50c4.1,0,7.1-1,8.9-3s2.8-4,2.8-6c0-3.7-2.1-7.2-6.4-10.6-4.3-3.4-11.1-7.9-20.5-13.6-11.3-7.2-19.9-13.3-25.8-18.2-5.9-4.9-10.2-10.2-13-15.8-2.8-5.6-4.2-12.1-4.2-19.6,0-13.1,3.2-22.9,9.8-29.5,6.5-6.6,13.7-10.7,21.4-12.3,7.8-1.7,15.3-2.5,22.6-2.5h64.1c5.6,0,10.2,4.6,10.2,10.2h0Z"/>
  <path class="cls-1" d="M941.7,100.3h37.1c6,0,10.7,5.2,10.1,11.2-3.8,36-12.9,66.9-27.2,92.7-15.8,28.4-35.4,49.4-58.7,63.1-23.3,13.7-47.5,20.5-72.5,20.5h-4.9c-5.6,0-10.2-4.5-10.2-10.1v-28.8c0-5.3,4.1-9.7,9.4-10.1,10.1-.8,19.2-2.6,27.3-5.6,6.5-2.4,8.8-10.4,4.5-15.9-12.7-16-22.2-32.5-28.5-49.4-6.4-17.3-10.5-36.2-12.1-56.6-.5-5.9,4.2-11,10.1-11h37.8c5.1,0,9.4,3.8,10.1,8.9,2.5,19.5,6.5,35.3,11.9,47.3,3.5,7.8,7.3,14.6,11.3,20.6,4.4,6.5,14,5.8,17.5-1.2,3.9-7.8,7.2-16.8,9.7-26.7,3.4-13.1,5.8-26.3,7.1-39.6.5-5.2,4.9-9.2,10.1-9.2h0Z"/>
  <g>
    <path class="cls-2" d="M313,24.7s-.3-.2-.4-.3L290.7.6c-1.2-1.3-3.5-.4-3.6,1.5l-6,75.9c0,.7.6,1.6.9,1.8l31.1-55.1h0s0,0,0,0Z"/>
    <path class="cls-3" d="M284.3,79.8l61.7-44.5c1.5-1.1,1.2-3.5-.6-3.9l-31.8-6.4c-.2,0-.4-.2-.6-.2l-31.1,55.1c0,0,0,0,0,0,0,0,1.5.4,2.2-.2h0Z"/>
  </g>
</svg>